<?xml version="1.0" encoding="UTF-8" standalone="no"?>
<!DOCTYPE svg PUBLIC "-//W3C//DTD SVG 1.1//EN" "http://www.w3.org/Graphics/SVG/1.1/DTD/svg11.dtd">
<svg xmlns="http://www.w3.org/2000/svg" version="1.1" viewBox="0.00 0.00 249.00 193.00">
<g stroke-width="2.00" fill="none" stroke-linecap="butt">
<path stroke="#a9b8ff" vector-effect="non-scaling-stroke" d="
  M 98.71 38.87
  L 94.60 38.46"
/>
<path stroke="#99989c" vector-effect="non-scaling-stroke" d="
  M 94.60 38.46
  Q 93.59 37.30 91.58 37.28
  Q 91.02 37.28 90.62 36.88
  L 82.16 28.35
  Q 81.82 28.01 81.35 28.00
  L 72.91 27.96
  Q 72.40 27.96 72.17 27.51
  C 71.12 25.45 67.77 25.41 67.26 28.00
  C 66.55 31.64 71.00 33.12 72.19 29.92
  Q 72.34 29.54 72.75 29.53
  L 80.71 29.52
  Q 81.32 29.52 81.75 29.94
  L 88.72 36.77
  A 0.29 0.29 0.0 0 1 88.52 37.27
  L 72.87 37.28
  Q 72.27 37.28 72.08 36.72
  Q 71.77 35.81 70.77 35.52
  C 67.38 34.52 65.85 38.85 68.18 40.39
  C 69.41 41.19 71.72 40.96 72.19 39.32
  Q 72.33 38.87 72.80 38.88
  Q 85.01 39.16 92.00 38.88
  Q 93.06 38.83 93.80 39.79"
/>
<path stroke="#868689" vector-effect="non-scaling-stroke" d="
  M 93.80 39.79
  Q 93.34 42.66 94.49 45.09
  Q 94.71 45.55 94.42 45.98
  Q 93.74 47.00 93.74 47.75
  Q 93.77 56.81 93.75 65.91
  A 0.56 0.55 -90.0 0 1 93.21 66.46
  L 90.62 66.52
  Q 89.96 66.54 89.96 65.87
  L 89.97 49.24
  A 0.74 0.73 -81.4 0 0 89.46 48.54
  Q 88.83 48.33 88.08 48.53"
/>
<path stroke="#99989c" vector-effect="non-scaling-stroke" d="
  M 88.08 48.53
  L 78.75 48.50
  Q 78.32 48.50 78.20 48.09
  Q 77.83 46.83 76.52 46.53
  C 72.07 45.49 72.17 52.22 76.01 51.84
  Q 78.06 51.64 78.39 49.52
  A 0.15 0.15 0.0 0 1 78.67 49.48
  Q 78.74 49.62 78.81 49.75
  A 0.84 0.82 73.7 0 0 79.54 50.16
  L 88.02 50.05"
/>
<path stroke="#868689" vector-effect="non-scaling-stroke" d="
  M 88.02 50.05
  Q 88.08 49.86 88.31 49.97
  Q 88.75 50.19 88.75 50.69
  L 88.75 66.97
  A 0.72 0.71 89.6 0 0 89.47 67.69
  L 93.32 67.65
  Q 93.76 67.64 93.76 68.07
  L 93.75 80.70
  Q 93.75 81.21 93.41 81.59
  L 89.64 85.72
  Q 89.27 86.13 88.71 86.13
  L 82.79 86.14
  A 0.78 0.77 -12.7 0 1 82.09 85.70
  C 80.56 82.52 76.46 84.40 77.06 87.40
  A 2.59 2.58 -11.7 0 0 80.14 89.42
  Q 81.39 89.16 81.89 88.01
  Q 82.14 87.45 82.75 87.45
  L 89.12 87.46
  Q 89.64 87.46 90.00 87.08
  L 93.21 83.73
  A 0.34 0.34 0.0 0 1 93.80 83.97
  L 93.73 90.87
  A 1.09 1.08 88.8 0 0 94.87 91.97
  L 97.09 91.85
  Q 97.74 91.81 97.74 92.46
  L 97.76 99.70
  Q 97.76 100.15 97.30 100.15
  L 83.81 100.09
  A 0.95 0.94 -17.0 0 1 83.03 99.68
  Q 81.52 97.44 78.95 98.65
  Q 78.48 98.87 78.29 99.35
  C 76.77 103.03 81.46 105.38 82.97 101.98
  Q 83.19 101.46 83.75 101.47
  L 91.50 101.47
  Q 92.03 101.47 92.02 102.00
  L 92.01 110.58
  A 1.23 1.23 0.0 0 1 91.65 111.45
  L 85.04 118.06
  Q 84.62 118.47 84.06 118.31
  C 81.74 117.67 79.89 119.21 80.60 121.62
  C 81.25 123.79 83.94 123.60 85.35 122.36
  A 0.64 0.62 -19.1 0 0 85.56 121.94
  L 85.82 119.34
  A 1.19 1.14 -20.7 0 1 86.16 118.63
  L 92.88 111.90
  A 1.26 1.22 68.1 0 0 93.24 111.02
  L 93.22 102.01
  Q 93.21 101.49 93.74 101.49
  L 98.25 101.48
  Q 98.98 101.47 98.97 100.75
  L 98.97 92.45
  A 0.59 0.59 0.0 0 1 99.56 91.86
  L 109.82 91.88
  Q 110.50 91.89 110.50 92.56
  L 110.51 102.00
  Q 110.51 102.62 110.07 103.06
  L 100.38 112.59
  A 1.62 1.56 -66.4 0 1 99.27 113.05
  C 94.95 113.05 95.51 118.48 98.75 118.47
  C 101.58 118.46 101.51 116.33 101.13 114.29
  Q 101.03 113.79 101.39 113.43
  L 111.25 103.54
  A 2.47 2.46 -22.7 0 0 111.96 101.81
  L 111.96 92.48
  Q 111.96 91.92 112.52 91.92
  L 128.34 91.93
  Q 129.00 91.93 129.00 92.59
  L 129.02 102.27
  Q 129.02 102.88 129.45 103.31
  L 139.59 113.44
  A 0.84 0.84 0.0 0 1 139.78 114.34
  C 138.93 116.52 140.36 118.93 142.97 118.35
  A 2.24 2.23 82.9 0 0 144.72 116.09
  Q 144.61 113.07 141.52 113.09
  Q 140.95 113.09 140.56 112.69
  L 130.90 103.02
  A 1.51 1.49 23.1 0 1 130.47 101.97
  L 130.46 92.60
  Q 130.46 91.91 131.15 91.91
  L 141.29 91.83
  Q 142.01 91.82 142.01 92.54
  L 142.01 100.75
  A 0.73 0.73 0.0 0 0 142.75 101.48
  L 147.22 101.43
  Q 147.76 101.43 147.76 101.97
  L 147.76 111.46
  A 0.65 0.62 23.4 0 0 147.95 111.91
  L 154.86 118.66
  Q 155.25 119.05 155.25 119.59
  L 155.24 121.69
  Q 155.23 122.24 155.69 122.56
  C 157.08 123.55 159.37 123.61 160.28 121.94
  C 161.37 119.91 159.35 117.41 156.94 118.38
  A 0.81 0.80 56.2 0 1 156.07 118.20
  L 149.34 111.49
  Q 148.95 111.10 148.95 110.55
  L 148.93 102.02
  A 0.56 0.56 0.0 0 1 149.48 101.46
  L 157.24 101.44
  Q 157.73 101.44 157.94 101.89
  Q 158.94 104.08 161.12 103.45
  C 164.46 102.48 163.15 96.93 159.08 98.60
  Q 158.62 98.78 158.35 99.19
  L 158.00 99.72
  Q 157.74 100.10 157.29 100.10
  L 143.70 100.17
  A 0.48 0.47 -0.0 0 1 143.22 99.70
  L 143.23 92.36
  Q 143.23 91.69 143.90 91.73
  L 146.46 91.86
  A 0.71 0.70 1.2 0 0 147.21 91.15
  L 147.13 83.69
  Q 147.13 83.09 147.55 83.52
  L 150.99 87.09
  Q 151.36 87.46 151.88 87.46
  L 158.24 87.47
  Q 158.78 87.47 159.00 87.96
  C 160.97 92.38 166.64 86.68 162.69 84.50
  Q 160.31 83.19 158.85 85.67
  Q 158.58 86.13 158.06 86.13
  L 152.15 86.19
  A 0.88 0.86 67.4 0 1 151.49 85.91
  L 147.47 81.54
  A 1.07 1.03 -67.2 0 1 147.19 80.82
  L 147.13 68.28
  A 0.60 0.60 0.0 0 1 147.72 67.68
  L 151.65 67.63
  Q 152.21 67.62 152.21 67.06
  L 152.22 50.19"
/>
<path stroke="#99989c" vector-effect="non-scaling-stroke" d="
  M 152.22 50.19
  Q 156.61 50.24 161.00 50.23
  Q 161.98 50.23 162.25 49.65
  Q 162.51 49.11 162.62 49.63
  L 162.71 50.06
  A 2.44 2.44 0.0 0 0 165.72 51.91
  C 167.89 51.34 168.67 48.06 166.65 46.75
  C 165.47 45.97 163.43 46.39 162.81 47.93
  Q 162.63 48.39 162.13 48.40
  L 152.20 48.46"
/>
<path stroke="#868689" vector-effect="non-scaling-stroke" d="
  M 152.20 48.46
  L 151.62 48.49
  Q 150.99 48.52 150.99 49.15
  L 151.02 65.84
  Q 151.02 66.46 150.41 66.46
  L 147.81 66.48
  Q 147.14 66.48 147.14 65.81
  L 147.18 47.55
  Q 147.19 47.13 146.96 46.78
  Q 145.97 45.28 147.05 43.79
  A 1.22 1.18 -32.2 0 0 147.27 42.89
  Q 146.86 40.15 148.05 38.68"
/>
<path stroke="#99989c" vector-effect="non-scaling-stroke" d="
  M 148.05 38.68
  L 168.16 38.85
  Q 168.61 38.86 168.73 39.29
  C 169.20 40.96 171.27 41.15 172.57 40.48
  C 175.28 39.06 173.46 33.79 169.57 35.73
  A 1.10 1.10 0.0 0 0 169.06 36.30
  L 168.85 36.81
  Q 168.67 37.26 168.19 37.26
  L 152.48 37.35
  A 0.33 0.33 0.0 0 1 152.25 36.78
  L 159.20 29.93
  Q 159.61 29.52 160.19 29.52
  L 168.04 29.52
  Q 168.64 29.52 168.84 30.09
  C 170.06 33.52 175.49 30.81 173.34 27.19
  A 2.05 2.02 81.2 0 0 172.07 26.25
  Q 169.55 25.65 168.84 27.52
  Q 168.65 28.02 168.11 28.01
  L 159.55 27.96
  A 0.99 0.98 21.8 0 0 158.84 28.26
  Q 154.60 32.64 150.33 36.82
  C 149.74 37.40 149.19 37.45 148.41 37.44"
/>
<path stroke="#868689" vector-effect="non-scaling-stroke" d="
  M 148.41 37.44
  Q 147.37 37.55 146.35 38.58
  A 1.13 1.11 -67.1 0 1 145.56 38.91
  L 134.26 39.08
  A 0.32 0.32 0.0 0 1 134.03 38.54
  L 143.30 29.31
  A 3.26 3.25 67.4 0 0 144.24 27.02
  L 144.23 19.48
  A 1.22 1.22 0.0 0 1 144.60 18.58
  L 150.56 12.78
  Q 150.98 12.37 151.54 12.55
  C 154.95 13.66 156.71 8.16 152.03 7.67
  A 2.02 2.02 0.0 0 0 149.80 9.61
  L 149.74 11.47
  A 0.89 0.87 70.8 0 1 149.46 12.07
  L 143.48 17.70
  Q 143.02 18.13 143.02 18.76
  L 142.99 27.36
  Q 142.99 27.89 142.61 28.27
  L 132.12 38.72
  Q 130.24 40.59 130.24 37.94
  L 130.23 28.31
  Q 130.23 27.84 130.69 27.74
  Q 132.07 27.45 132.27 26.01
  C 132.87 21.83 126.72 21.53 126.94 25.76
  Q 127.02 27.31 128.56 27.72
  Q 129.00 27.84 129.00 28.30
  L 129.00 38.37
  A 0.62 0.61 -89.5 0 1 128.38 38.99
  L 112.45 38.95
  A 0.49 0.49 0.0 0 1 111.96 38.45
  L 111.97 28.55
  Q 111.97 28.03 112.44 27.79
  C 115.52 26.22 113.33 21.84 110.36 22.90
  C 108.22 23.66 108.04 27.03 110.22 27.92
  Q 110.75 28.14 110.75 28.71
  L 110.75 37.51
  Q 110.75 40.60 108.56 38.42
  L 98.39 28.29
  Q 98.00 27.91 98.00 27.37
  L 97.94 18.57
  A 0.72 0.71 21.8 0 0 97.73 18.09
  L 91.45 12.16
  A 1.04 1.02 27.2 0 1 91.15 11.25
  Q 91.45 9.62 90.60 8.17
  A 0.63 0.62 -15.0 0 0 90.06 7.86
  L 87.64 7.87
  A 1.66 1.66 0.0 0 0 85.99 9.68
  Q 86.34 13.39 89.54 12.54
  Q 90.05 12.40 90.42 12.77
  L 96.41 18.72
  A 1.16 1.16 0.0 0 1 96.75 19.54
  L 96.75 27.87
  Q 96.75 28.41 97.13 28.79
  L 106.47 38.09
  A 0.42 0.41 67.4 0 1 106.18 38.80
  L 98.71 38.87"
/>
<path stroke="#201e25" vector-effect="non-scaling-stroke" d="
  M 148.41 37.44
  Q 148.87 38.15 148.05 38.68"
/>
<path stroke="#201e25" vector-effect="non-scaling-stroke" d="
  M 152.20 48.46
  L 152.22 50.19"
/>
<path stroke="#201e25" vector-effect="non-scaling-stroke" d="
  M 88.02 50.05
  Q 87.50 49.26 88.08 48.53"
/>
<path stroke="#201e25" vector-effect="non-scaling-stroke" d="
  M 93.80 39.79
  Q 93.73 39.08 95.04 39.29"
/>
<path stroke="#303f89" vector-effect="non-scaling-stroke" d="
  M 95.04 39.29
  L 98.71 38.87"
/>
<path stroke="#42519c" vector-effect="non-scaling-stroke" d="
  M 94.60 38.46
  L 95.04 39.29"
/>
<path stroke="#ffefad" vector-effect="non-scaling-stroke" d="
  M 117.77 157.80
  L 117.75 136.42
  Q 117.75 135.84 118.33 135.84
  L 132.72 135.88
  Q 133.32 135.89 133.35 135.28
  L 133.43 133.60
  Q 133.45 133.00 132.85 133.00
  L 119.24 133.00
  A 4.51 4.51 0.0 0 0 114.73 137.51
  L 114.73 156.74
  A 4.26 4.26 0.0 0 0 118.99 161.00
  L 132.85 160.99
  Q 133.43 160.99 133.42 160.40
  L 133.41 158.76
  Q 133.40 158.12 132.76 158.12
  L 118.18 158.21
  Q 117.77 158.22 117.77 157.80"
/>
<path stroke="#ffefad" vector-effect="non-scaling-stroke" d="
  M 156.2862 137.7364
  A 4.73 4.73 0.0 0 0 151.5644 132.9982
  L 142.2244 132.9819
  A 4.73 4.73 0.0 0 0 137.4862 137.7036
  L 137.4538 156.2436
  A 4.73 4.73 0.0 0 0 142.1756 160.9818
  L 151.5156 160.9981
  A 4.73 4.73 0.0 0 0 156.2538 156.2764
  L 156.2862 137.7364"
/>
<path stroke="#ffefad" vector-effect="non-scaling-stroke" d="
  M 161.10 133.04
  Q 160.24 133.05 160.24 133.91
  L 160.23 160.44
  Q 160.23 161.00 160.78 161.00
  L 174.66 161.00
  A 4.17 4.16 -0.0 0 0 178.83 156.84
  L 178.87 137.36
  A 4.38 4.37 89.9 0 0 174.48 132.98
  L 161.10 133.04"
/>
<path stroke="#ffefad" vector-effect="non-scaling-stroke" d="
  M 185.77 157.74
  L 185.77 148.29
  A 0.67 0.67 0.0 0 1 186.44 147.62
  L 197.27 147.68
  Q 197.96 147.68 197.97 146.98
  L 197.99 145.36
  A 0.63 0.62 0.4 0 0 197.36 144.73
  L 186.26 144.73
  A 0.48 0.47 0.0 0 1 185.78 144.26
  L 185.74 136.43
  Q 185.73 135.85 186.32 135.85
  L 200.71 135.88
  Q 201.31 135.88 201.34 135.28
  L 201.43 133.60
  Q 201.46 133.00 200.85 133.00
  L 187.24 133.00
  A 4.51 4.51 0.0 0 0 182.73 137.51
  L 182.72 144.12
  Q 182.72 144.63 183.06 145.02
  L 183.82 145.89
  Q 184.19 146.31 183.77 146.67
  L 183.14 147.21
  Q 182.73 147.57 182.73 148.12
  L 182.73 156.74
  A 4.26 4.26 0.0 0 0 186.99 161.00
  L 200.84 160.99
  Q 201.43 160.99 201.43 160.40
  L 201.42 158.77
  Q 201.42 158.12 200.76 158.12
  L 186.24 158.20
  Q 185.77 158.20 185.77 157.74"
/>
<path stroke="#ffefad" vector-effect="non-scaling-stroke" d="
  M 222.88 144.37
  Q 219.01 144.97 215.09 144.77
  C 212.49 144.64 210.86 145.55 209.98 147.88
  Q 209.80 148.37 210.13 148.78
  Q 214.41 154.13 218.52 159.63
  C 219.68 161.17 220.89 161.32 222.66 160.93
  Q 223.21 160.80 222.87 160.36
  L 213.56 148.12
  A 1.00 1.00 0.0 0 0 212.69 147.73
  Q 212.07 147.79 211.66 147.48
  Q 211.24 147.17 211.75 147.25
  Q 215.59 147.85 219.47 147.73
  C 224.94 147.56 224.05 139.84 223.72 136.64
  A 4.06 4.06 0.0 0 0 219.68 133.00
  L 205.75 133.00
  A 0.50 0.50 0.0 0 0 205.25 133.50
  L 205.23 160.42
  Q 205.23 161.00 205.80 160.99
  L 207.70 160.98
  Q 208.27 160.98 208.27 160.41
  Q 208.26 149.00 208.27 137.58
  C 208.27 137.02 208.09 136.84 208.00 136.38
  Q 207.89 135.84 208.44 135.84
  L 220.30 135.88
  Q 220.76 135.88 220.76 136.33
  Q 220.79 139.53 220.76 142.76
  Q 220.75 143.76 221.20 144.15
  Q 221.80 144.67 222.88 144.37"
/>
<path stroke="#ffefad" vector-effect="non-scaling-stroke" d="
  M 241.67 158.19
  L 228.63 158.15
  Q 228.02 158.15 228.02 158.75
  L 227.99 160.37
  Q 227.99 161.00 228.62 161.00
  L 240.82 160.99
  A 4.29 4.28 -0.2 0 0 245.11 156.68
  L 245.07 150.10
  A 0.78 0.78 0.0 0 0 244.68 149.44
  L 231.61 142.01
  Q 231.00 141.66 231.00 140.96
  L 230.99 136.40
  Q 230.98 135.79 231.59 135.80
  L 243.71 135.89
  Q 244.32 135.89 244.34 135.28
  L 244.40 133.67
  Q 244.42 133.03 243.78 133.02
  Q 238.63 132.95 233.51 133.04
  C 227.28 133.14 227.99 137.12 228.00 141.69
  Q 228.00 142.19 228.37 142.53
  C 232.20 146.20 237.03 148.55 241.66 151.09
  Q 242.11 151.34 242.10 151.85
  L 242.03 157.84
  Q 242.02 158.19 241.67 158.19"
/>
<path stroke="#a9b8ff" vector-effect="non-scaling-stroke" d="
  M 26.06 142.49
  L 26.29 143.35
  Q 26.45 143.98 27.11 143.98
  L 34.19 143.98
  Q 34.83 143.98 34.76 143.35
  C 34.16 137.76 29.63 135.53 24.42 135.15
  Q 23.81 135.11 23.81 135.72
  L 23.81 140.50
  A 0.79 0.78 13.6 0 0 24.26 141.22
  L 25.49 141.80
  A 1.04 1.04 0.0 0 1 26.06 142.49"
/>
<path stroke="#a9b8ff" vector-effect="non-scaling-stroke" d="
  M 59.48 148.19
  C 59.47 152.62 58.81 157.25 53.02 156.74
  Q 52.48 156.69 52.48 157.24
  L 52.50 162.98
  Q 52.50 163.52 53.04 163.52
  Q 66.69 163.40 68.29 152.19
  C 69.76 141.88 64.00 134.29 52.98 135.18
  Q 52.50 135.22 52.50 135.71
  L 52.48 141.00
  Q 52.48 141.52 53.00 141.55
  Q 59.50 141.92 59.48 148.19"
/>
<path stroke="#a9b8ff" vector-effect="non-scaling-stroke" d="
  M 26.41 155.43
  L 26.40 162.73
  Q 26.40 163.10 26.76 163.07
  C 31.79 162.60 35.51 159.11 35.42 153.98
  C 35.30 146.69 26.17 145.73 20.91 144.62
  A 2.12 2.11 -84.1 0 1 19.23 142.55
  L 19.23 135.97
  Q 19.23 135.39 18.65 135.47
  Q 9.24 136.87 10.45 145.55
  C 11.29 151.57 20.38 152.67 24.95 153.63
  A 1.84 1.84 0.0 0 1 26.41 155.43"
/>
<path stroke="#a9b8ff" vector-effect="non-scaling-stroke" d="
  M 82.03 135.77
  A 0.29 0.29 0.0 0 0 81.74 135.48
  L 73.50 135.48
  A 0.29 0.29 0.0 0 0 73.21 135.77
  L 73.21 162.71
  A 0.29 0.29 0.0 0 0 73.50 163.00
  L 81.74 163.00
  A 0.29 0.29 0.0 0 0 82.03 162.71
  L 82.03 135.77"
/>
<path stroke="#a9b8ff" vector-effect="non-scaling-stroke" d="
  M 109.24 135.81
  A 0.32 0.32 0.0 0 0 108.92 135.49
  L 100.64 135.49
  A 0.32 0.32 0.0 0 0 100.32 135.81
  L 100.32 162.67
  A 0.32 0.32 0.0 0 0 100.64 162.99
  L 108.92 162.99
  A 0.32 0.32 0.0 0 0 109.24 162.67
  L 109.24 135.81"
/>
<path stroke="#a9b8ff" vector-effect="non-scaling-stroke" d="
  M 47.85 162.41
  L 47.95 135.99
  A 0.11 0.11 0.0 0 0 47.84 135.88
  L 47.83 135.88
  A 13.16 8.92 -89.8 0 0 38.86 149.00
  L 38.86 149.32
  A 13.16 8.92 -89.8 0 0 47.73 162.52
  L 47.74 162.52
  A 0.11 0.11 0.0 0 0 47.85 162.41"
/>
<path stroke="#a9b8ff" vector-effect="non-scaling-stroke" d="
  M 21.27 157.10
  C 19.64 156.73 18.38 156.55 18.24 154.37
  A 0.71 0.70 88.3 0 0 17.54 153.70
  L 10.26 153.71
  Q 9.77 153.71 9.78 154.20
  C 9.89 161.22 15.30 163.04 21.22 163.32
  Q 21.75 163.35 21.75 162.82
  L 21.78 157.74
  Q 21.78 157.22 21.27 157.10"
/>
<path stroke="#a9b8ff" vector-effect="non-scaling-stroke" d="
  M 96.21 156.28
  A 0.31 0.31 0.0 0 0 95.90 155.97
  L 87.00 155.97
  A 0.31 0.31 0.0 0 0 86.69 156.28
  L 86.69 162.68
  A 0.31 0.31 0.0 0 0 87.00 162.99
  L 95.90 162.99
  A 0.31 0.31 0.0 0 0 96.21 162.68
  L 96.21 156.28"
/>
<path stroke="#868689" vector-effect="non-scaling-stroke" d="
  M 99.58 172.90
  L 99.50 181.38
  A 0.46 0.46 0.0 0 0 99.96 181.84
  L 102.52 181.86
  A 4.41 4.32 -89.5 0 0 106.88 177.49
  L 106.88 176.91
  A 4.41 4.32 -89.5 0 0 102.60 172.46
  L 100.04 172.44
  A 0.46 0.46 0.0 0 0 99.58 172.90"
/>
<path stroke="#868689" vector-effect="non-scaling-stroke" d="
  M 109.99 175.25
  A 0.30 0.30 0.0 0 1 110.56 175.16
  L 113.07 181.62
  A 0.45 0.44 -44.9 0 0 113.90 181.62
  L 116.44 175.15
  A 0.31 0.30 -35.2 0 1 117.03 175.25
  L 117.19 181.52
  A 0.34 0.34 0.0 0 0 117.71 181.80
  Q 117.91 181.68 117.90 181.41
  Q 117.82 177.03 117.75 172.92
  A 0.50 0.50 0.0 0 0 116.78 172.74
  L 113.83 180.10
  A 0.36 0.36 0.0 0 1 113.16 180.10
  L 110.27 172.78
  A 0.54 0.54 0.0 0 0 109.23 172.97
  L 109.18 181.71
  A 0.24 0.24 0.0 0 0 109.48 181.94
  Q 109.91 181.84 109.89 181.25
  Q 109.80 178.12 109.99 175.25"
/>
<path stroke="#868689" vector-effect="non-scaling-stroke" d="
  M 130.7812 182.2700
  A 5.04 3.16 90.1 0 0 133.9500 177.2355
  A 5.04 3.16 90.1 0 0 130.7988 172.1900
  A 5.04 3.16 90.1 0 0 127.6300 177.2245
  A 5.04 3.16 90.1 0 0 130.7812 182.2700"
/>
<path stroke="#868689" vector-effect="non-scaling-stroke" d="
  M 123.17 173.99
  L 123.24 181.78
  Q 123.24 181.86 123.32 181.84
  L 123.68 181.77
  A 0.26 0.25 -5.5 0 0 123.89 181.52
  L 123.73 172.95
  Q 123.71 172.08 123.01 172.59
  L 120.98 174.05
  A 0.30 0.30 0.0 0 0 121.28 174.56
  Q 121.93 174.25 122.43 173.70
  A 0.43 0.43 0.0 0 1 123.17 173.99"
/>
<path stroke="#99989c" vector-effect="non-scaling-stroke" d="
  M 138.07 174.26
  L 138.18 181.33
  A 0.35 0.35 0.0 0 0 138.88 181.32
  L 138.89 172.99
  Q 138.89 171.98 138.10 172.61
  L 136.18 174.14
  A 0.28 0.28 0.0 0 0 136.51 174.59
  L 137.48 173.95
  Q 138.06 173.56 138.07 174.26"
/>
<path stroke="#868689" vector-effect="non-scaling-stroke" d="
  M 90.04 10.05
  A 1.37 1.37 0.0 0 0 88.67 8.68
  A 1.37 1.37 0.0 0 0 87.30 10.05
  A 1.37 1.37 0.0 0 0 88.67 11.42
  A 1.37 1.37 0.0 0 0 90.04 10.05"
/>
<path stroke="#868689" vector-effect="non-scaling-stroke" d="
  M 153.60 10.06
  A 1.34 1.34 0.0 0 0 152.26 8.72
  A 1.34 1.34 0.0 0 0 150.92 10.06
  A 1.34 1.34 0.0 0 0 152.26 11.40
  A 1.34 1.34 0.0 0 0 153.60 10.06"
/>
<path stroke="#868689" vector-effect="non-scaling-stroke" d="
  M 112.7489 25.5160
  A 1.46 1.17 2.2 0 0 111.3349 24.2909
  A 1.46 1.17 2.2 0 0 109.8311 25.4040
  A 1.46 1.17 2.2 0 0 111.2451 26.6291
  A 1.46 1.17 2.2 0 0 112.7489 25.5160"
/>
<path stroke="#868689" vector-effect="non-scaling-stroke" d="
  M 131.0872 25.3402
  A 1.43 1.19 -3.6 0 0 129.5853 24.2423
  A 1.43 1.19 -3.6 0 0 128.2328 25.5198
  A 1.43 1.19 -3.6 0 0 129.7347 26.6177
  A 1.43 1.19 -3.6 0 0 131.0872 25.3402"
/>
<path stroke="#867536" vector-effect="non-scaling-stroke" d="
  M 117.46 74.90
  Q 111.91 74.07 106.84 74.80
  A 1.11 1.11 0.0 0 0 107.00 77.01
  L 116.97 76.98
  A 3.34 3.34 0.0 0 0 120.30 73.60
  L 120.24 68.06
  A 0.90 0.89 -75.9 0 0 119.79 67.30
  L 109.11 61.12
  Q 108.65 60.85 108.65 60.32
  L 108.65 56.57
  A 0.53 0.53 0.0 0 1 109.18 56.04
  L 119.11 56.01
  Q 119.72 56.01 119.78 55.40
  L 119.89 54.19
  A 0.58 0.57 3.7 0 0 119.33 53.56
  C 115.89 53.49 109.77 52.71 107.31 55.01
  Q 104.78 57.37 106.91 62.13
  Q 107.08 62.50 107.43 62.71
  L 117.81 69.01
  A 0.67 0.66 -73.4 0 1 118.12 69.59
  L 117.93 74.51
  Q 117.91 74.96 117.46 74.90"
/>
<path stroke="#867536" vector-effect="non-scaling-stroke" d="
  M 126.51 74.74
  L 126.42 54.08
  A 0.58 0.58 0.0 0 0 125.83 53.50
  L 124.55 53.51
  A 0.70 0.69 -0.9 0 0 123.87 54.20
  L 124.02 76.50
  Q 124.02 76.98 124.50 76.98
  L 138.73 77.00
  Q 139.45 77.00 139.40 76.29
  L 139.32 75.17
  Q 139.28 74.66 138.78 74.65
  Q 133.31 74.55 127.83 74.60
  C 127.43 74.61 127.22 74.78 126.90 74.97
  Q 126.51 75.19 126.51 74.74"
/>
<path stroke="#868689" vector-effect="non-scaling-stroke" d="
  M 81.03 86.75
  A 1.36 1.36 0.0 0 0 79.67 85.39
  A 1.36 1.36 0.0 0 0 78.31 86.75
  A 1.36 1.36 0.0 0 0 79.67 88.11
  A 1.36 1.36 0.0 0 0 81.03 86.75"
/>
<path stroke="#868689" vector-effect="non-scaling-stroke" d="
  M 162.64 86.74
  A 1.36 1.36 0.0 0 0 161.28 85.38
  A 1.36 1.36 0.0 0 0 159.92 86.74
  A 1.36 1.36 0.0 0 0 161.28 88.10
  A 1.36 1.36 0.0 0 0 162.64 86.74"
/>
<path stroke="#868689" vector-effect="non-scaling-stroke" d="
  M 82.00 100.89
  A 1.37 1.37 0.0 0 0 80.63 99.52
  A 1.37 1.37 0.0 0 0 79.26 100.89
  A 1.37 1.37 0.0 0 0 80.63 102.26
  A 1.37 1.37 0.0 0 0 82.00 100.89"
/>
<path stroke="#868689" vector-effect="non-scaling-stroke" d="
  M 161.71 100.89
  A 1.34 1.34 0.0 0 0 160.37 99.55
  A 1.34 1.34 0.0 0 0 159.03 100.89
  A 1.34 1.34 0.0 0 0 160.37 102.23
  A 1.34 1.34 0.0 0 0 161.71 100.89"
/>
<path stroke="#868689" vector-effect="non-scaling-stroke" d="
  M 100.15 115.77
  A 1.32 1.32 0.0 0 0 98.83 114.45
  A 1.32 1.32 0.0 0 0 97.51 115.77
  A 1.32 1.32 0.0 0 0 98.83 117.09
  A 1.32 1.32 0.0 0 0 100.15 115.77"
/>
<path stroke="#868689" vector-effect="non-scaling-stroke" d="
  M 142.5133 117.1290
  A 1.43 1.29 73.2 0 0 143.3349 115.3871
  A 1.43 1.29 73.2 0 0 141.6867 114.3910
  A 1.43 1.29 73.2 0 0 140.8651 116.1329
  A 1.43 1.29 73.2 0 0 142.5133 117.1290"
/>
<path stroke="#868689" vector-effect="non-scaling-stroke" d="
  M 84.39 120.73
  A 1.33 1.33 0.0 0 0 83.06 119.40
  A 1.33 1.33 0.0 0 0 81.73 120.73
  A 1.33 1.33 0.0 0 0 83.06 122.06
  A 1.33 1.33 0.0 0 0 84.39 120.73"
/>
<path stroke="#868689" vector-effect="non-scaling-stroke" d="
  M 159.14 120.75
  A 1.28 1.28 0.0 0 0 157.86 119.47
  A 1.28 1.28 0.0 0 0 156.58 120.75
  A 1.28 1.28 0.0 0 0 157.86 122.03
  A 1.28 1.28 0.0 0 0 159.14 120.75"
/>
<path stroke="#99989c" vector-effect="non-scaling-stroke" d="
  M 71.06 28.76
  A 1.23 1.23 0.0 0 0 69.83 27.53
  A 1.23 1.23 0.0 0 0 68.60 28.76
  A 1.23 1.23 0.0 0 0 69.83 29.99
  A 1.23 1.23 0.0 0 0 71.06 28.76"
/>
<path stroke="#99989c" vector-effect="non-scaling-stroke" d="
  M 69.6287 39.4489
  A 1.33 1.16 97.4 0 0 70.9503 38.2794
  A 1.33 1.16 97.4 0 0 69.9713 36.8111
  A 1.33 1.16 97.4 0 0 68.6497 37.9806
  A 1.33 1.16 97.4 0 0 69.6287 39.4489"
/>
<path stroke="#99989c" vector-effect="non-scaling-stroke" d="
  M 172.37 28.74
  A 1.23 1.23 0.0 0 0 171.14 27.51
  A 1.23 1.23 0.0 0 0 169.91 28.74
  A 1.23 1.23 0.0 0 0 171.14 29.97
  A 1.23 1.23 0.0 0 0 172.37 28.74"
/>
<path stroke="#99989c" vector-effect="non-scaling-stroke" d="
  M 172.30 38.21
  A 1.20 1.20 0.0 0 0 171.10 37.01
  A 1.20 1.20 0.0 0 0 169.90 38.21
  A 1.20 1.20 0.0 0 0 171.10 39.41
  A 1.20 1.20 0.0 0 0 172.30 38.21"
/>
<path stroke="#99989c" vector-effect="non-scaling-stroke" d="
  M 77.09 49.19
  A 1.27 1.27 0.0 0 0 75.82 47.92
  A 1.27 1.27 0.0 0 0 74.55 49.19
  A 1.27 1.27 0.0 0 0 75.82 50.46
  A 1.27 1.27 0.0 0 0 77.09 49.19"
/>
<path stroke="#99989c" vector-effect="non-scaling-stroke" d="
  M 165.0431 50.4476
  A 1.26 1.15 93.5 0 0 166.2679 49.2602
  A 1.26 1.15 93.5 0 0 165.1969 47.9324
  A 1.26 1.15 93.5 0 0 163.9721 49.1198
  A 1.26 1.15 93.5 0 0 165.0431 50.4476"
/>
<path stroke="#ffefad" vector-effect="non-scaling-stroke" d="
  M 140.36 159.16
  A 0.85 0.85 0.0 0 1 141.20 158.18
  L 152.69 158.13
  Q 153.25 158.13 153.25 157.56
  L 153.17 136.53
  Q 153.17 135.90 152.54 135.90
  L 140.94 135.84
  Q 140.37 135.84 140.39 136.40
  Q 140.82 147.95 140.31 159.50
  Q 140.31 159.53 140.33 159.56
  Q 140.38 159.67 140.38 159.50
  Q 140.38 159.33 140.36 159.16"
/>
<path stroke="#ffefad" vector-effect="non-scaling-stroke" d="
  M 175.33 158.71
  Q 175.34 159.15 175.38 159.51
  A 0.19 0.19 0.0 0 0 175.76 159.49
  L 175.79 136.43
  Q 175.79 135.89 175.26 135.89
  Q 171.71 135.84 164.75 135.90
  Q 163.37 135.91 163.66 134.47
  Q 163.68 134.36 163.57 134.37
  Q 163.44 134.38 163.31 134.40
  Q 163.28 134.40 163.28 134.51
  L 163.26 157.04
  Q 163.26 157.26 163.12 157.44
  L 162.81 157.82
  Q 162.50 158.19 162.99 158.19
  L 174.75 158.13
  Q 175.33 158.12 175.33 158.71"
/>
<path stroke="#868689" vector-effect="non-scaling-stroke" d="
  M 100.21 173.86
  L 100.27 180.50
  A 0.79 0.79 0.0 0 0 101.07 181.28
  L 102.49 181.27
  A 3.78 3.67 89.4 0 0 106.12 177.45
  L 106.12 176.79
  A 3.78 3.67 89.4 0 0 102.41 173.05
  L 100.99 173.06
  A 0.79 0.79 0.0 0 0 100.21 173.86"
/>
<path stroke="#868689" vector-effect="non-scaling-stroke" d="
  M 130.7823 181.6800
  A 4.44 2.42 90.1 0 0 133.2100 177.2442
  A 4.44 2.42 90.1 0 0 130.7977 172.8000
  A 4.44 2.42 90.1 0 0 128.3700 177.2358
  A 4.44 2.42 90.1 0 0 130.7823 181.6800"
/>
</g>
<path fill="#ffffff" d="
  M 0.00 0.00
  L 249.00 0.00
  L 249.00 193.00
  L 0.00 193.00
  L 0.00 0.00
  Z
  M 98.71 38.87
  L 94.60 38.46
  Q 93.59 37.30 91.58 37.28
  Q 91.02 37.28 90.62 36.88
  L 82.16 28.35
  Q 81.82 28.01 81.35 28.00
  L 72.91 27.96
  Q 72.40 27.96 72.17 27.51
  C 71.12 25.45 67.77 25.41 67.26 28.00
  C 66.55 31.64 71.00 33.12 72.19 29.92
  Q 72.34 29.54 72.75 29.53
  L 80.71 29.52
  Q 81.32 29.52 81.75 29.94
  L 88.72 36.77
  A 0.29 0.29 0.0 0 1 88.52 37.27
  L 72.87 37.28
  Q 72.27 37.28 72.08 36.72
  Q 71.77 35.81 70.77 35.52
  C 67.38 34.52 65.85 38.85 68.18 40.39
  C 69.41 41.19 71.72 40.96 72.19 39.32
  Q 72.33 38.87 72.80 38.88
  Q 85.01 39.16 92.00 38.88
  Q 93.06 38.83 93.80 39.79
  Q 93.34 42.66 94.49 45.09
  Q 94.71 45.55 94.42 45.98
  Q 93.74 47.00 93.74 47.75
  Q 93.77 56.81 93.75 65.91
  A 0.56 0.55 -90.0 0 1 93.21 66.46
  L 90.62 66.52
  Q 89.96 66.54 89.96 65.87
  L 89.97 49.24
  A 0.74 0.73 -81.4 0 0 89.46 48.54
  Q 88.83 48.33 88.08 48.53
  L 78.75 48.50
  Q 78.32 48.50 78.20 48.09
  Q 77.83 46.83 76.52 46.53
  C 72.07 45.49 72.17 52.22 76.01 51.84
  Q 78.06 51.64 78.39 49.52
  A 0.15 0.15 0.0 0 1 78.67 49.48
  Q 78.74 49.62 78.81 49.75
  A 0.84 0.82 73.7 0 0 79.54 50.16
  L 88.02 50.05
  Q 88.08 49.86 88.31 49.97
  Q 88.75 50.19 88.75 50.69
  L 88.75 66.97
  A 0.72 0.71 89.6 0 0 89.47 67.69
  L 93.32 67.65
  Q 93.76 67.64 93.76 68.07
  L 93.75 80.70
  Q 93.75 81.21 93.41 81.59
  L 89.64 85.72
  Q 89.27 86.13 88.71 86.13
  L 82.79 86.14
  A 0.78 0.77 -12.7 0 1 82.09 85.70
  C 80.56 82.52 76.46 84.40 77.06 87.40
  A 2.59 2.58 -11.7 0 0 80.14 89.42
  Q 81.39 89.16 81.89 88.01
  Q 82.14 87.45 82.75 87.45
  L 89.12 87.46
  Q 89.64 87.46 90.00 87.08
  L 93.21 83.73
  A 0.34 0.34 0.0 0 1 93.80 83.97
  L 93.73 90.87
  A 1.09 1.08 88.8 0 0 94.87 91.97
  L 97.09 91.85
  Q 97.74 91.81 97.74 92.46
  L 97.76 99.70
  Q 97.76 100.15 97.30 100.15
  L 83.81 100.09
  A 0.95 0.94 -17.0 0 1 83.03 99.68
  Q 81.52 97.44 78.95 98.65
  Q 78.48 98.87 78.29 99.35
  C 76.77 103.03 81.46 105.38 82.97 101.98
  Q 83.19 101.46 83.75 101.47
  L 91.50 101.47
  Q 92.03 101.47 92.02 102.00
  L 92.01 110.58
  A 1.23 1.23 0.0 0 1 91.65 111.45
  L 85.04 118.06
  Q 84.62 118.47 84.06 118.31
  C 81.74 117.67 79.89 119.21 80.60 121.62
  C 81.25 123.79 83.94 123.60 85.35 122.36
  A 0.64 0.62 -19.1 0 0 85.56 121.94
  L 85.82 119.34
  A 1.19 1.14 -20.7 0 1 86.16 118.63
  L 92.88 111.90
  A 1.26 1.22 68.1 0 0 93.24 111.02
  L 93.22 102.01
  Q 93.21 101.49 93.74 101.49
  L 98.25 101.48
  Q 98.98 101.47 98.97 100.75
  L 98.97 92.45
  A 0.59 0.59 0.0 0 1 99.56 91.86
  L 109.82 91.88
  Q 110.50 91.89 110.50 92.56
  L 110.51 102.00
  Q 110.51 102.62 110.07 103.06
  L 100.38 112.59
  A 1.62 1.56 -66.4 0 1 99.27 113.05
  C 94.95 113.05 95.51 118.48 98.75 118.47
  C 101.58 118.46 101.51 116.33 101.13 114.29
  Q 101.03 113.79 101.39 113.43
  L 111.25 103.54
  A 2.47 2.46 -22.7 0 0 111.96 101.81
  L 111.96 92.48
  Q 111.96 91.92 112.52 91.92
  L 128.34 91.93
  Q 129.00 91.93 129.00 92.59
  L 129.02 102.27
  Q 129.02 102.88 129.45 103.31
  L 139.59 113.44
  A 0.84 0.84 0.0 0 1 139.78 114.34
  C 138.93 116.52 140.36 118.93 142.97 118.35
  A 2.24 2.23 82.9 0 0 144.72 116.09
  Q 144.61 113.07 141.52 113.09
  Q 140.95 113.09 140.56 112.69
  L 130.90 103.02
  A 1.51 1.49 23.1 0 1 130.47 101.97
  L 130.46 92.60
  Q 130.46 91.91 131.15 91.91
  L 141.29 91.83
  Q 142.01 91.82 142.01 92.54
  L 142.01 100.75
  A 0.73 0.73 0.0 0 0 142.75 101.48
  L 147.22 101.43
  Q 147.76 101.43 147.76 101.97
  L 147.76 111.46
  A 0.65 0.62 23.4 0 0 147.95 111.91
  L 154.86 118.66
  Q 155.25 119.05 155.25 119.59
  L 155.24 121.69
  Q 155.23 122.24 155.69 122.56
  C 157.08 123.55 159.37 123.61 160.28 121.94
  C 161.37 119.91 159.35 117.41 156.94 118.38
  A 0.81 0.80 56.2 0 1 156.07 118.20
  L 149.34 111.49
  Q 148.95 111.10 148.95 110.55
  L 148.93 102.02
  A 0.56 0.56 0.0 0 1 149.48 101.46
  L 157.24 101.44
  Q 157.73 101.44 157.94 101.89
  Q 158.94 104.08 161.12 103.45
  C 164.46 102.48 163.15 96.93 159.08 98.60
  Q 158.62 98.78 158.35 99.19
  L 158.00 99.72
  Q 157.74 100.10 157.29 100.10
  L 143.70 100.17
  A 0.48 0.47 -0.0 0 1 143.22 99.70
  L 143.23 92.36
  Q 143.23 91.69 143.90 91.73
  L 146.46 91.86
  A 0.71 0.70 1.2 0 0 147.21 91.15
  L 147.13 83.69
  Q 147.13 83.09 147.55 83.52
  L 150.99 87.09
  Q 151.36 87.46 151.88 87.46
  L 158.24 87.47
  Q 158.78 87.47 159.00 87.96
  C 160.97 92.38 166.64 86.68 162.69 84.50
  Q 160.31 83.19 158.85 85.67
  Q 158.58 86.13 158.06 86.13
  L 152.15 86.19
  A 0.88 0.86 67.4 0 1 151.49 85.91
  L 147.47 81.54
  A 1.07 1.03 -67.2 0 1 147.19 80.82
  L 147.13 68.28
  A 0.60 0.60 0.0 0 1 147.72 67.68
  L 151.65 67.63
  Q 152.21 67.62 152.21 67.06
  L 152.22 50.19
  Q 156.61 50.24 161.00 50.23
  Q 161.98 50.23 162.25 49.65
  Q 162.51 49.11 162.62 49.63
  L 162.71 50.06
  A 2.44 2.44 0.0 0 0 165.72 51.91
  C 167.89 51.34 168.67 48.06 166.65 46.75
  C 165.47 45.97 163.43 46.39 162.81 47.93
  Q 162.63 48.39 162.13 48.40
  L 152.20 48.46
  L 151.62 48.49
  Q 150.99 48.52 150.99 49.15
  L 151.02 65.84
  Q 151.02 66.46 150.41 66.46
  L 147.81 66.48
  Q 147.14 66.48 147.14 65.81
  L 147.18 47.55
  Q 147.19 47.13 146.96 46.78
  Q 145.97 45.28 147.05 43.79
  A 1.22 1.18 -32.2 0 0 147.27 42.89
  Q 146.86 40.15 148.05 38.68
  L 168.16 38.85
  Q 168.61 38.86 168.73 39.29
  C 169.20 40.96 171.27 41.15 172.57 40.48
  C 175.28 39.06 173.46 33.79 169.57 35.73
  A 1.10 1.10 0.0 0 0 169.06 36.30
  L 168.85 36.81
  Q 168.67 37.26 168.19 37.26
  L 152.48 37.35
  A 0.33 0.33 0.0 0 1 152.25 36.78
  L 159.20 29.93
  Q 159.61 29.52 160.19 29.52
  L 168.04 29.52
  Q 168.64 29.52 168.84 30.09
  C 170.06 33.52 175.49 30.81 173.34 27.19
  A 2.05 2.02 81.2 0 0 172.07 26.25
  Q 169.55 25.65 168.84 27.52
  Q 168.65 28.02 168.11 28.01
  L 159.55 27.96
  A 0.99 0.98 21.8 0 0 158.84 28.26
  Q 154.60 32.64 150.33 36.82
  C 149.74 37.40 149.19 37.45 148.41 37.44
  Q 147.37 37.55 146.35 38.58
  A 1.13 1.11 -67.1 0 1 145.56 38.91
  L 134.26 39.08
  A 0.32 0.32 0.0 0 1 134.03 38.54
  L 143.30 29.31
  A 3.26 3.25 67.4 0 0 144.24 27.02
  L 144.23 19.48
  A 1.22 1.22 0.0 0 1 144.60 18.58
  L 150.56 12.78
  Q 150.98 12.37 151.54 12.55
  C 154.95 13.66 156.71 8.16 152.03 7.67
  A 2.02 2.02 0.0 0 0 149.80 9.61
  L 149.74 11.47
  A 0.89 0.87 70.8 0 1 149.46 12.07
  L 143.48 17.70
  Q 143.02 18.13 143.02 18.76
  L 142.99 27.36
  Q 142.99 27.89 142.61 28.27
  L 132.12 38.72
  Q 130.24 40.59 130.24 37.94
  L 130.23 28.31
  Q 130.23 27.84 130.69 27.74
  Q 132.07 27.45 132.27 26.01
  C 132.87 21.83 126.72 21.53 126.94 25.76
  Q 127.02 27.31 128.56 27.72
  Q 129.00 27.84 129.00 28.30
  L 129.00 38.37
  A 0.62 0.61 -89.5 0 1 128.38 38.99
  L 112.45 38.95
  A 0.49 0.49 0.0 0 1 111.96 38.45
  L 111.97 28.55
  Q 111.97 28.03 112.44 27.79
  C 115.52 26.22 113.33 21.84 110.36 22.90
  C 108.22 23.66 108.04 27.03 110.22 27.92
  Q 110.75 28.14 110.75 28.71
  L 110.75 37.51
  Q 110.75 40.60 108.56 38.42
  L 98.39 28.29
  Q 98.00 27.91 98.00 27.37
  L 97.94 18.57
  A 0.72 0.71 21.8 0 0 97.73 18.09
  L 91.45 12.16
  A 1.04 1.02 27.2 0 1 91.15 11.25
  Q 91.45 9.62 90.60 8.17
  A 0.63 0.62 -15.0 0 0 90.06 7.86
  L 87.64 7.87
  A 1.66 1.66 0.0 0 0 85.99 9.68
  Q 86.34 13.39 89.54 12.54
  Q 90.05 12.40 90.42 12.77
  L 96.41 18.72
  A 1.16 1.16 0.0 0 1 96.75 19.54
  L 96.75 27.87
  Q 96.75 28.41 97.13 28.79
  L 106.47 38.09
  A 0.42 0.41 67.4 0 1 106.18 38.80
  L 98.71 38.87
  Z
  M 117.77 157.80
  L 117.75 136.42
  Q 117.75 135.84 118.33 135.84
  L 132.72 135.88
  Q 133.32 135.89 133.35 135.28
  L 133.43 133.60
  Q 133.45 133.00 132.85 133.00
  L 119.24 133.00
  A 4.51 4.51 0.0 0 0 114.73 137.51
  L 114.73 156.74
  A 4.26 4.26 0.0 0 0 118.99 161.00
  L 132.85 160.99
  Q 133.43 160.99 133.42 160.40
  L 133.41 158.76
  Q 133.40 158.12 132.76 158.12
  L 118.18 158.21
  Q 117.77 158.22 117.77 157.80
  Z
  M 156.2862 137.7364
  A 4.73 4.73 0.0 0 0 151.5644 132.9982
  L 142.2244 132.9819
  A 4.73 4.73 0.0 0 0 137.4862 137.7036
  L 137.4538 156.2436
  A 4.73 4.73 0.0 0 0 142.1756 160.9818
  L 151.5156 160.9981
  A 4.73 4.73 0.0 0 0 156.2538 156.2764
  L 156.2862 137.7364
  Z
  M 161.10 133.04
  Q 160.24 133.05 160.24 133.91
  L 160.23 160.44
  Q 160.23 161.00 160.78 161.00
  L 174.66 161.00
  A 4.17 4.16 -0.0 0 0 178.83 156.84
  L 178.87 137.36
  A 4.38 4.37 89.9 0 0 174.48 132.98
  L 161.10 133.04
  Z
  M 185.77 157.74
  L 185.77 148.29
  A 0.67 0.67 0.0 0 1 186.44 147.62
  L 197.27 147.68
  Q 197.96 147.68 197.97 146.98
  L 197.99 145.36
  A 0.63 0.62 0.4 0 0 197.36 144.73
  L 186.26 144.73
  A 0.48 0.47 0.0 0 1 185.78 144.26
  L 185.74 136.43
  Q 185.73 135.85 186.32 135.85
  L 200.71 135.88
  Q 201.31 135.88 201.34 135.28
  L 201.43 133.60
  Q 201.46 133.00 200.85 133.00
  L 187.24 133.00
  A 4.51 4.51 0.0 0 0 182.73 137.51
  L 182.72 144.12
  Q 182.72 144.63 183.06 145.02
  L 183.82 145.89
  Q 184.19 146.31 183.77 146.67
  L 183.14 147.21
  Q 182.73 147.57 182.73 148.12
  L 182.73 156.74
  A 4.26 4.26 0.0 0 0 186.99 161.00
  L 200.84 160.99
  Q 201.43 160.99 201.43 160.40
  L 201.42 158.77
  Q 201.42 158.12 200.76 158.12
  L 186.24 158.20
  Q 185.77 158.20 185.77 157.74
  Z
  M 222.88 144.37
  Q 219.01 144.97 215.09 144.77
  C 212.49 144.64 210.86 145.55 209.98 147.88
  Q 209.80 148.37 210.13 148.78
  Q 214.41 154.13 218.52 159.63
  C 219.68 161.17 220.89 161.32 222.66 160.93
  Q 223.21 160.80 222.87 160.36
  L 213.56 148.12
  A 1.00 1.00 0.0 0 0 212.69 147.73
  Q 212.07 147.79 211.66 147.48
  Q 211.24 147.17 211.75 147.25
  Q 215.59 147.85 219.47 147.73
  C 224.94 147.56 224.05 139.84 223.72 136.64
  A 4.06 4.06 0.0 0 0 219.68 133.00
  L 205.75 133.00
  A 0.50 0.50 0.0 0 0 205.25 133.50
  L 205.23 160.42
  Q 205.23 161.00 205.80 160.99
  L 207.70 160.98
  Q 208.27 160.98 208.27 160.41
  Q 208.26 149.00 208.27 137.58
  C 208.27 137.02 208.09 136.84 208.00 136.38
  Q 207.89 135.84 208.44 135.84
  L 220.30 135.88
  Q 220.76 135.88 220.76 136.33
  Q 220.79 139.53 220.76 142.76
  Q 220.75 143.76 221.20 144.15
  Q 221.80 144.67 222.88 144.37
  Z
  M 241.67 158.19
  L 228.63 158.15
  Q 228.02 158.15 228.02 158.75
  L 227.99 160.37
  Q 227.99 161.00 228.62 161.00
  L 240.82 160.99
  A 4.29 4.28 -0.2 0 0 245.11 156.68
  L 245.07 150.10
  A 0.78 0.78 0.0 0 0 244.68 149.44
  L 231.61 142.01
  Q 231.00 141.66 231.00 140.96
  L 230.99 136.40
  Q 230.98 135.79 231.59 135.80
  L 243.71 135.89
  Q 244.32 135.89 244.34 135.28
  L 244.40 133.67
  Q 244.42 133.03 243.78 133.02
  Q 238.63 132.95 233.51 133.04
  C 227.28 133.14 227.99 137.12 228.00 141.69
  Q 228.00 142.19 228.37 142.53
  C 232.20 146.20 237.03 148.55 241.66 151.09
  Q 242.11 151.34 242.10 151.85
  L 242.03 157.84
  Q 242.02 158.19 241.67 158.19
  Z
  M 26.06 142.49
  L 26.29 143.35
  Q 26.45 143.98 27.11 143.98
  L 34.19 143.98
  Q 34.83 143.98 34.76 143.35
  C 34.16 137.76 29.63 135.53 24.42 135.15
  Q 23.81 135.11 23.81 135.72
  L 23.81 140.50
  A 0.79 0.78 13.6 0 0 24.26 141.22
  L 25.49 141.80
  A 1.04 1.04 0.0 0 1 26.06 142.49
  Z
  M 59.48 148.19
  C 59.47 152.62 58.81 157.25 53.02 156.74
  Q 52.48 156.69 52.48 157.24
  L 52.50 162.98
  Q 52.50 163.52 53.04 163.52
  Q 66.69 163.40 68.29 152.19
  C 69.76 141.88 64.00 134.29 52.98 135.18
  Q 52.50 135.22 52.50 135.71
  L 52.48 141.00
  Q 52.48 141.52 53.00 141.55
  Q 59.50 141.92 59.48 148.19
  Z
  M 26.41 155.43
  L 26.40 162.73
  Q 26.40 163.10 26.76 163.07
  C 31.79 162.60 35.51 159.11 35.42 153.98
  C 35.30 146.69 26.17 145.73 20.91 144.62
  A 2.12 2.11 -84.1 0 1 19.23 142.55
  L 19.23 135.97
  Q 19.23 135.39 18.65 135.47
  Q 9.24 136.87 10.45 145.55
  C 11.29 151.57 20.38 152.67 24.95 153.63
  A 1.84 1.84 0.0 0 1 26.41 155.43
  Z
  M 82.03 135.77
  A 0.29 0.29 0.0 0 0 81.74 135.48
  L 73.50 135.48
  A 0.29 0.29 0.0 0 0 73.21 135.77
  L 73.21 162.71
  A 0.29 0.29 0.0 0 0 73.50 163.00
  L 81.74 163.00
  A 0.29 0.29 0.0 0 0 82.03 162.71
  L 82.03 135.77
  Z
  M 109.24 135.81
  A 0.32 0.32 0.0 0 0 108.92 135.49
  L 100.64 135.49
  A 0.32 0.32 0.0 0 0 100.32 135.81
  L 100.32 162.67
  A 0.32 0.32 0.0 0 0 100.64 162.99
  L 108.92 162.99
  A 0.32 0.32 0.0 0 0 109.24 162.67
  L 109.24 135.81
  Z
  M 47.85 162.41
  L 47.95 135.99
  A 0.11 0.11 0.0 0 0 47.84 135.88
  L 47.83 135.88
  A 13.16 8.92 -89.8 0 0 38.86 149.00
  L 38.86 149.32
  A 13.16 8.92 -89.8 0 0 47.73 162.52
  L 47.74 162.52
  A 0.11 0.11 0.0 0 0 47.85 162.41
  Z
  M 21.27 157.10
  C 19.64 156.73 18.38 156.55 18.24 154.37
  A 0.71 0.70 88.3 0 0 17.54 153.70
  L 10.26 153.71
  Q 9.77 153.71 9.78 154.20
  C 9.89 161.22 15.30 163.04 21.22 163.32
  Q 21.75 163.35 21.75 162.82
  L 21.78 157.74
  Q 21.78 157.22 21.27 157.10
  Z
  M 96.21 156.28
  A 0.31 0.31 0.0 0 0 95.90 155.97
  L 87.00 155.97
  A 0.31 0.31 0.0 0 0 86.69 156.28
  L 86.69 162.68
  A 0.31 0.31 0.0 0 0 87.00 162.99
  L 95.90 162.99
  A 0.31 0.31 0.0 0 0 96.21 162.68
  L 96.21 156.28
  Z
  M 99.58 172.90
  L 99.50 181.38
  A 0.46 0.46 0.0 0 0 99.96 181.84
  L 102.52 181.86
  A 4.41 4.32 -89.5 0 0 106.88 177.49
  L 106.88 176.91
  A 4.41 4.32 -89.5 0 0 102.60 172.46
  L 100.04 172.44
  A 0.46 0.46 0.0 0 0 99.58 172.90
  Z
  M 109.99 175.25
  A 0.30 0.30 0.0 0 1 110.56 175.16
  L 113.07 181.62
  A 0.45 0.44 -44.9 0 0 113.90 181.62
  L 116.44 175.15
  A 0.31 0.30 -35.2 0 1 117.03 175.25
  L 117.19 181.52
  A 0.34 0.34 0.0 0 0 117.71 181.80
  Q 117.91 181.68 117.90 181.41
  Q 117.82 177.03 117.75 172.92
  A 0.50 0.50 0.0 0 0 116.78 172.74
  L 113.83 180.10
  A 0.36 0.36 0.0 0 1 113.16 180.10
  L 110.27 172.78
  A 0.54 0.54 0.0 0 0 109.23 172.97
  L 109.18 181.71
  A 0.24 0.24 0.0 0 0 109.48 181.94
  Q 109.91 181.84 109.89 181.25
  Q 109.80 178.12 109.99 175.25
  Z
  M 130.7812 182.2700
  A 5.04 3.16 90.1 0 0 133.9500 177.2355
  A 5.04 3.16 90.1 0 0 130.7988 172.1900
  A 5.04 3.16 90.1 0 0 127.6300 177.2245
  A 5.04 3.16 90.1 0 0 130.7812 182.2700
  Z
  M 123.17 173.99
  L 123.24 181.78
  Q 123.24 181.86 123.32 181.84
  L 123.68 181.77
  A 0.26 0.25 -5.5 0 0 123.89 181.52
  L 123.73 172.95
  Q 123.71 172.08 123.01 172.59
  L 120.98 174.05
  A 0.30 0.30 0.0 0 0 121.28 174.56
  Q 121.93 174.25 122.43 173.70
  A 0.43 0.43 0.0 0 1 123.17 173.99
  Z
  M 138.07 174.26
  L 138.18 181.33
  A 0.35 0.35 0.0 0 0 138.88 181.32
  L 138.89 172.99
  Q 138.89 171.98 138.10 172.61
  L 136.18 174.14
  A 0.28 0.28 0.0 0 0 136.51 174.59
  L 137.48 173.95
  Q 138.06 173.56 138.07 174.26
  Z"
/>
<path fill="#0d0c12" d="
  M 148.41 37.44
  Q 148.87 38.15 148.05 38.68
  Q 146.86 40.15 147.27 42.89
  A 1.22 1.18 -32.2 0 1 147.05 43.79
  Q 145.97 45.28 146.96 46.78
  Q 147.19 47.13 147.18 47.55
  L 147.14 65.81
  Q 147.14 66.48 147.81 66.48
  L 150.41 66.46
  Q 151.02 66.46 151.02 65.84
  L 150.99 49.15
  Q 150.99 48.52 151.62 48.49
  L 152.20 48.46
  L 152.22 50.19
  L 152.21 67.06
  Q 152.21 67.62 151.65 67.63
  L 147.72 67.68
  A 0.60 0.60 0.0 0 0 147.13 68.28
  L 147.19 80.82
  A 1.07 1.03 -67.2 0 0 147.47 81.54
  L 151.49 85.91
  A 0.88 0.86 67.4 0 0 152.15 86.19
  L 158.06 86.13
  Q 158.58 86.13 158.85 85.67
  Q 160.31 83.19 162.69 84.50
  C 166.64 86.68 160.97 92.38 159.00 87.96
  Q 158.78 87.47 158.24 87.47
  L 151.88 87.46
  Q 151.36 87.46 150.99 87.09
  L 147.55 83.52
  Q 147.13 83.09 147.13 83.69
  L 147.21 91.15
  A 0.71 0.70 1.2 0 1 146.46 91.86
  L 143.90 91.73
  Q 143.23 91.69 143.23 92.36
  L 143.22 99.70
  A 0.48 0.47 0.0 0 0 143.70 100.17
  L 157.29 100.10
  Q 157.74 100.10 158.00 99.72
  L 158.35 99.19
  Q 158.62 98.78 159.08 98.60
  C 163.15 96.93 164.46 102.48 161.12 103.45
  Q 158.94 104.08 157.94 101.89
  Q 157.73 101.44 157.24 101.44
  L 149.48 101.46
  A 0.56 0.56 0.0 0 0 148.93 102.02
  L 148.95 110.55
  Q 148.95 111.10 149.34 111.49
  L 156.07 118.20
  A 0.81 0.80 56.2 0 0 156.94 118.38
  C 159.35 117.41 161.37 119.91 160.28 121.94
  C 159.37 123.61 157.08 123.55 155.69 122.56
  Q 155.23 122.24 155.24 121.69
  L 155.25 119.59
  Q 155.25 119.05 154.86 118.66
  L 147.95 111.91
  A 0.65 0.62 23.4 0 1 147.76 111.46
  L 147.76 101.97
  Q 147.76 101.43 147.22 101.43
  L 142.75 101.48
  A 0.73 0.73 0.0 0 1 142.01 100.75
  L 142.01 92.54
  Q 142.01 91.82 141.29 91.83
  L 131.15 91.91
  Q 130.46 91.91 130.46 92.60
  L 130.47 101.97
  A 1.51 1.49 23.1 0 0 130.90 103.02
  L 140.56 112.69
  Q 140.95 113.09 141.52 113.09
  Q 144.61 113.07 144.72 116.09
  A 2.24 2.23 82.9 0 1 142.97 118.35
  C 140.36 118.93 138.93 116.52 139.78 114.34
  A 0.84 0.84 0.0 0 0 139.59 113.44
  L 129.45 103.31
  Q 129.02 102.88 129.02 102.27
  L 129.00 92.59
  Q 129.00 91.93 128.34 91.93
  L 112.52 91.92
  Q 111.96 91.92 111.96 92.48
  L 111.96 101.81
  A 2.47 2.46 -22.7 0 1 111.25 103.54
  L 101.39 113.43
  Q 101.03 113.79 101.13 114.29
  C 101.51 116.33 101.58 118.46 98.75 118.47
  C 95.51 118.48 94.95 113.05 99.27 113.05
  A 1.62 1.56 -66.4 0 0 100.38 112.59
  L 110.07 103.06
  Q 110.51 102.62 110.51 102.00
  L 110.50 92.56
  Q 110.50 91.89 109.82 91.88
  L 99.56 91.86
  A 0.59 0.59 0.0 0 0 98.97 92.45
  L 98.97 100.75
  Q 98.98 101.47 98.25 101.48
  L 93.74 101.49
  Q 93.21 101.49 93.22 102.01
  L 93.24 111.02
  A 1.26 1.22 68.1 0 1 92.88 111.90
  L 86.16 118.63
  A 1.19 1.14 -20.7 0 0 85.82 119.34
  L 85.56 121.94
  A 0.64 0.62 -19.1 0 1 85.35 122.36
  C 83.94 123.60 81.25 123.79 80.60 121.62
  C 79.89 119.21 81.74 117.67 84.06 118.31
  Q 84.62 118.47 85.04 118.06
  L 91.65 111.45
  A 1.23 1.23 0.0 0 0 92.01 110.58
  L 92.02 102.00
  Q 92.03 101.47 91.50 101.47
  L 83.75 101.47
  Q 83.19 101.46 82.97 101.98
  C 81.46 105.38 76.77 103.03 78.29 99.35
  Q 78.48 98.87 78.95 98.65
  Q 81.52 97.44 83.03 99.68
  A 0.95 0.94 -17.0 0 0 83.81 100.09
  L 97.30 100.15
  Q 97.76 100.15 97.76 99.70
  L 97.74 92.46
  Q 97.74 91.81 97.09 91.85
  L 94.87 91.97
  A 1.09 1.08 88.8 0 1 93.73 90.87
  L 93.80 83.97
  A 0.34 0.34 0.0 0 0 93.21 83.73
  L 90.00 87.08
  Q 89.64 87.46 89.12 87.46
  L 82.75 87.45
  Q 82.14 87.45 81.89 88.01
  Q 81.39 89.16 80.14 89.42
  A 2.59 2.58 -11.7 0 1 77.06 87.40
  C 76.46 84.40 80.56 82.52 82.09 85.70
  A 0.78 0.77 -12.7 0 0 82.79 86.14
  L 88.71 86.13
  Q 89.27 86.13 89.64 85.72
  L 93.41 81.59
  Q 93.75 81.21 93.75 80.70
  L 93.76 68.07
  Q 93.76 67.64 93.32 67.65
  L 89.47 67.69
  A 0.72 0.71 89.6 0 1 88.75 66.97
  L 88.75 50.69
  Q 88.75 50.19 88.31 49.97
  Q 88.08 49.86 88.02 50.05
  Q 87.50 49.26 88.08 48.53
  Q 88.83 48.33 89.46 48.54
  A 0.74 0.73 -81.4 0 1 89.97 49.24
  L 89.96 65.87
  Q 89.96 66.54 90.62 66.52
  L 93.21 66.46
  A 0.56 0.55 -90.0 0 0 93.75 65.91
  Q 93.77 56.81 93.74 47.75
  Q 93.74 47.00 94.42 45.98
  Q 94.71 45.55 94.49 45.09
  Q 93.34 42.66 93.80 39.79
  Q 93.73 39.08 95.04 39.29
  L 98.71 38.87
  L 106.18 38.80
  A 0.42 0.41 67.4 0 0 106.47 38.09
  L 97.13 28.79
  Q 96.75 28.41 96.75 27.87
  L 96.75 19.54
  A 1.16 1.16 0.0 0 0 96.41 18.72
  L 90.42 12.77
  Q 90.05 12.40 89.54 12.54
  Q 86.34 13.39 85.99 9.68
  A 1.66 1.66 0.0 0 1 87.64 7.87
  L 90.06 7.86
  A 0.63 0.62 -15.0 0 1 90.60 8.17
  Q 91.45 9.62 91.15 11.25
  A 1.04 1.02 27.2 0 0 91.45 12.16
  L 97.73 18.09
  A 0.72 0.71 21.8 0 1 97.94 18.57
  L 98.00 27.37
  Q 98.00 27.91 98.39 28.29
  L 108.56 38.42
  Q 110.75 40.60 110.75 37.51
  L 110.75 28.71
  Q 110.75 28.14 110.22 27.92
  C 108.04 27.03 108.22 23.66 110.36 22.90
  C 113.33 21.84 115.52 26.22 112.44 27.79
  Q 111.97 28.03 111.97 28.55
  L 111.96 38.45
  A 0.49 0.49 0.0 0 0 112.45 38.95
  L 128.38 38.99
  A 0.62 0.61 -89.5 0 0 129.00 38.37
  L 129.00 28.30
  Q 129.00 27.84 128.56 27.72
  Q 127.02 27.31 126.94 25.76
  C 126.72 21.53 132.87 21.83 132.27 26.01
  Q 132.07 27.45 130.69 27.74
  Q 130.23 27.84 130.23 28.31
  L 130.24 37.94
  Q 130.24 40.59 132.12 38.72
  L 142.61 28.27
  Q 142.99 27.89 142.99 27.36
  L 143.02 18.76
  Q 143.02 18.13 143.48 17.70
  L 149.46 12.07
  A 0.89 0.87 70.8 0 0 149.74 11.47
  L 149.80 9.61
  A 2.02 2.02 0.0 0 1 152.03 7.67
  C 156.71 8.16 154.95 13.66 151.54 12.55
  Q 150.98 12.37 150.56 12.78
  L 144.60 18.58
  A 1.22 1.22 0.0 0 0 144.23 19.48
  L 144.24 27.02
  A 3.26 3.25 67.4 0 1 143.30 29.31
  L 134.03 38.54
  A 0.32 0.32 0.0 0 0 134.26 39.08
  L 145.56 38.91
  A 1.13 1.11 -67.1 0 0 146.35 38.58
  Q 147.37 37.55 148.41 37.44
  Z
  M 90.04 10.05
  A 1.37 1.37 0.0 0 0 88.67 8.68
  A 1.37 1.37 0.0 0 0 87.30 10.05
  A 1.37 1.37 0.0 0 0 88.67 11.42
  A 1.37 1.37 0.0 0 0 90.04 10.05
  Z
  M 153.60 10.06
  A 1.34 1.34 0.0 0 0 152.26 8.72
  A 1.34 1.34 0.0 0 0 150.92 10.06
  A 1.34 1.34 0.0 0 0 152.26 11.40
  A 1.34 1.34 0.0 0 0 153.60 10.06
  Z
  M 112.7489 25.5160
  A 1.46 1.17 2.2 0 0 111.3349 24.2909
  A 1.46 1.17 2.2 0 0 109.8311 25.4040
  A 1.46 1.17 2.2 0 0 111.2451 26.6291
  A 1.46 1.17 2.2 0 0 112.7489 25.5160
  Z
  M 131.0872 25.3402
  A 1.43 1.19 -3.6 0 0 129.5853 24.2423
  A 1.43 1.19 -3.6 0 0 128.2328 25.5198
  A 1.43 1.19 -3.6 0 0 129.7347 26.6177
  A 1.43 1.19 -3.6 0 0 131.0872 25.3402
  Z
  M 117.46 74.90
  Q 111.91 74.07 106.84 74.80
  A 1.11 1.11 0.0 0 0 107.00 77.01
  L 116.97 76.98
  A 3.34 3.34 0.0 0 0 120.30 73.60
  L 120.24 68.06
  A 0.90 0.89 -75.9 0 0 119.79 67.30
  L 109.11 61.12
  Q 108.65 60.85 108.65 60.32
  L 108.65 56.57
  A 0.53 0.53 0.0 0 1 109.18 56.04
  L 119.11 56.01
  Q 119.72 56.01 119.78 55.40
  L 119.89 54.19
  A 0.58 0.57 3.7 0 0 119.33 53.56
  C 115.89 53.49 109.77 52.71 107.31 55.01
  Q 104.78 57.37 106.91 62.13
  Q 107.08 62.50 107.43 62.71
  L 117.81 69.01
  A 0.67 0.66 -73.4 0 1 118.12 69.59
  L 117.93 74.51
  Q 117.91 74.96 117.46 74.90
  Z
  M 126.51 74.74
  L 126.42 54.08
  A 0.58 0.58 0.0 0 0 125.83 53.50
  L 124.55 53.51
  A 0.70 0.69 -0.9 0 0 123.87 54.20
  L 124.02 76.50
  Q 124.02 76.98 124.50 76.98
  L 138.73 77.00
  Q 139.45 77.00 139.40 76.29
  L 139.32 75.17
  Q 139.28 74.66 138.78 74.65
  Q 133.31 74.55 127.83 74.60
  C 127.43 74.61 127.22 74.78 126.90 74.97
  Q 126.51 75.19 126.51 74.74
  Z
  M 81.03 86.75
  A 1.36 1.36 0.0 0 0 79.67 85.39
  A 1.36 1.36 0.0 0 0 78.31 86.75
  A 1.36 1.36 0.0 0 0 79.67 88.11
  A 1.36 1.36 0.0 0 0 81.03 86.75
  Z
  M 162.64 86.74
  A 1.36 1.36 0.0 0 0 161.28 85.38
  A 1.36 1.36 0.0 0 0 159.92 86.74
  A 1.36 1.36 0.0 0 0 161.28 88.10
  A 1.36 1.36 0.0 0 0 162.64 86.74
  Z
  M 82.00 100.89
  A 1.37 1.37 0.0 0 0 80.63 99.52
  A 1.37 1.37 0.0 0 0 79.26 100.89
  A 1.37 1.37 0.0 0 0 80.63 102.26
  A 1.37 1.37 0.0 0 0 82.00 100.89
  Z
  M 161.71 100.89
  A 1.34 1.34 0.0 0 0 160.37 99.55
  A 1.34 1.34 0.0 0 0 159.03 100.89
  A 1.34 1.34 0.0 0 0 160.37 102.23
  A 1.34 1.34 0.0 0 0 161.71 100.89
  Z
  M 100.15 115.77
  A 1.32 1.32 0.0 0 0 98.83 114.45
  A 1.32 1.32 0.0 0 0 97.51 115.77
  A 1.32 1.32 0.0 0 0 98.83 117.09
  A 1.32 1.32 0.0 0 0 100.15 115.77
  Z
  M 142.5133 117.1290
  A 1.43 1.29 73.2 0 0 143.3349 115.3871
  A 1.43 1.29 73.2 0 0 141.6867 114.3910
  A 1.43 1.29 73.2 0 0 140.8651 116.1329
  A 1.43 1.29 73.2 0 0 142.5133 117.1290
  Z
  M 84.39 120.73
  A 1.33 1.33 0.0 0 0 83.06 119.40
  A 1.33 1.33 0.0 0 0 81.73 120.73
  A 1.33 1.33 0.0 0 0 83.06 122.06
  A 1.33 1.33 0.0 0 0 84.39 120.73
  Z
  M 159.14 120.75
  A 1.28 1.28 0.0 0 0 157.86 119.47
  A 1.28 1.28 0.0 0 0 156.58 120.75
  A 1.28 1.28 0.0 0 0 157.86 122.03
  A 1.28 1.28 0.0 0 0 159.14 120.75
  Z"
/>
<circle fill="#ffffff" cx="88.67" cy="10.05" r="1.37"/>
<circle fill="#ffffff" cx="152.26" cy="10.06" r="1.34"/>
<ellipse fill="#ffffff" cx="0.00" cy="0.00" transform="translate(111.29,25.46) rotate(2.2)" rx="1.46" ry="1.17"/>
<ellipse fill="#ffffff" cx="0.00" cy="0.00" transform="translate(129.66,25.43) rotate(-3.6)" rx="1.43" ry="1.19"/>
<path fill="#323038" d="
  M 94.60 38.46
  L 95.04 39.29
  Q 93.73 39.08 93.80 39.79
  Q 93.06 38.83 92.00 38.88
  Q 85.01 39.16 72.80 38.88
  Q 72.33 38.87 72.19 39.32
  C 71.72 40.96 69.41 41.19 68.18 40.39
  C 65.85 38.85 67.38 34.52 70.77 35.52
  Q 71.77 35.81 72.08 36.72
  Q 72.27 37.28 72.87 37.28
  L 88.52 37.27
  A 0.29 0.29 0.0 0 0 88.72 36.77
  L 81.75 29.94
  Q 81.32 29.52 80.71 29.52
  L 72.75 29.53
  Q 72.34 29.54 72.19 29.92
  C 71.00 33.12 66.55 31.64 67.26 28.00
  C 67.77 25.41 71.12 25.45 72.17 27.51
  Q 72.40 27.96 72.91 27.96
  L 81.35 28.00
  Q 81.82 28.01 82.16 28.35
  L 90.62 36.88
  Q 91.02 37.28 91.58 37.28
  Q 93.59 37.30 94.60 38.46
  Z
  M 71.06 28.76
  A 1.23 1.23 0.0 0 0 69.83 27.53
  A 1.23 1.23 0.0 0 0 68.60 28.76
  A 1.23 1.23 0.0 0 0 69.83 29.99
  A 1.23 1.23 0.0 0 0 71.06 28.76
  Z
  M 69.6287 39.4489
  A 1.33 1.16 97.4 0 0 70.9503 38.2794
  A 1.33 1.16 97.4 0 0 69.9713 36.8111
  A 1.33 1.16 97.4 0 0 68.6497 37.9806
  A 1.33 1.16 97.4 0 0 69.6287 39.4489
  Z"
/>
<path fill="#323038" d="
  M 148.05 38.68
  Q 148.87 38.15 148.41 37.44
  C 149.19 37.45 149.74 37.40 150.33 36.82
  Q 154.60 32.64 158.84 28.26
  A 0.99 0.98 21.8 0 1 159.55 27.96
  L 168.11 28.01
  Q 168.65 28.02 168.84 27.52
  Q 169.55 25.65 172.07 26.25
  A 2.05 2.02 81.2 0 1 173.34 27.19
  C 175.49 30.81 170.06 33.52 168.84 30.09
  Q 168.64 29.52 168.04 29.52
  L 160.19 29.52
  Q 159.61 29.52 159.20 29.93
  L 152.25 36.78
  A 0.33 0.33 0.0 0 0 152.48 37.35
  L 168.19 37.26
  Q 168.67 37.26 168.85 36.81
  L 169.06 36.30
  A 1.10 1.10 0.0 0 1 169.57 35.73
  C 173.46 33.79 175.28 39.06 172.57 40.48
  C 171.27 41.15 169.20 40.96 168.73 39.29
  Q 168.61 38.86 168.16 38.85
  L 148.05 38.68
  Z
  M 172.37 28.74
  A 1.23 1.23 0.0 0 0 171.14 27.51
  A 1.23 1.23 0.0 0 0 169.91 28.74
  A 1.23 1.23 0.0 0 0 171.14 29.97
  A 1.23 1.23 0.0 0 0 172.37 28.74
  Z
  M 172.30 38.21
  A 1.20 1.20 0.0 0 0 171.10 37.01
  A 1.20 1.20 0.0 0 0 169.90 38.21
  A 1.20 1.20 0.0 0 0 171.10 39.41
  A 1.20 1.20 0.0 0 0 172.30 38.21
  Z"
/>
<circle fill="#ffffff" cx="69.83" cy="28.76" r="1.23"/>
<circle fill="#ffffff" cx="171.14" cy="28.74" r="1.23"/>
<ellipse fill="#ffffff" cx="0.00" cy="0.00" transform="translate(69.80,38.13) rotate(97.4)" rx="1.33" ry="1.16"/>
<circle fill="#ffffff" cx="171.10" cy="38.21" r="1.20"/>
<path fill="#5271ff" d="
  M 94.60 38.46
  L 98.71 38.87
  L 95.04 39.29
  L 94.60 38.46
  Z"
/>
<path fill="#323038" d="
  M 88.08 48.53
  Q 87.50 49.26 88.02 50.05
  L 79.54 50.16
  A 0.84 0.82 73.7 0 1 78.81 49.75
  Q 78.74 49.62 78.67 49.48
  A 0.15 0.15 0.0 0 0 78.39 49.52
  Q 78.06 51.64 76.01 51.84
  C 72.17 52.22 72.07 45.49 76.52 46.53
  Q 77.83 46.83 78.20 48.09
  Q 78.32 48.50 78.75 48.50
  L 88.08 48.53
  Z
  M 77.09 49.19
  A 1.27 1.27 0.0 0 0 75.82 47.92
  A 1.27 1.27 0.0 0 0 74.55 49.19
  A 1.27 1.27 0.0 0 0 75.82 50.46
  A 1.27 1.27 0.0 0 0 77.09 49.19
  Z"
/>
<path fill="#323038" d="
  M 152.22 50.19
  L 152.20 48.46
  L 162.13 48.40
  Q 162.63 48.39 162.81 47.93
  C 163.43 46.39 165.47 45.97 166.65 46.75
  C 168.67 48.06 167.89 51.34 165.72 51.91
  A 2.44 2.44 0.0 0 1 162.71 50.06
  L 162.62 49.63
  Q 162.51 49.11 162.25 49.65
  Q 161.98 50.23 161.00 50.23
  Q 156.61 50.24 152.22 50.19
  Z
  M 165.0431 50.4476
  A 1.26 1.15 93.5 0 0 166.2679 49.2602
  A 1.26 1.15 93.5 0 0 165.1969 47.9324
  A 1.26 1.15 93.5 0 0 163.9721 49.1198
  A 1.26 1.15 93.5 0 0 165.0431 50.4476
  Z"
/>
<circle fill="#ffffff" cx="75.82" cy="49.19" r="1.27"/>
<ellipse fill="#ffffff" cx="0.00" cy="0.00" transform="translate(165.12,49.19) rotate(93.5)" rx="1.26" ry="1.15"/>
<path fill="#ffde5a" d="
  M 117.93 74.51
  L 118.12 69.59
  A 0.67 0.66 -73.4 0 0 117.81 69.01
  L 107.43 62.71
  Q 107.08 62.50 106.91 62.13
  Q 104.78 57.37 107.31 55.01
  C 109.77 52.71 115.89 53.49 119.33 53.56
  A 0.58 0.57 3.7 0 1 119.89 54.19
  L 119.78 55.40
  Q 119.72 56.01 119.11 56.01
  L 109.18 56.04
  A 0.53 0.53 0.0 0 0 108.65 56.57
  L 108.65 60.32
  Q 108.65 60.85 109.11 61.12
  L 119.79 67.30
  A 0.90 0.89 -75.9 0 1 120.24 68.06
  L 120.30 73.60
  A 3.34 3.34 0.0 0 1 116.97 76.98
  L 107.00 77.01
  A 1.11 1.11 0.0 0 1 106.84 74.80
  Q 111.91 74.07 117.46 74.90
  Q 117.91 74.96 117.93 74.51
  Z"
/>
<path fill="#ffde5a" d="
  M 126.90 74.97
  C 127.22 74.78 127.43 74.61 127.83 74.60
  Q 133.31 74.55 138.78 74.65
  Q 139.28 74.66 139.32 75.17
  L 139.40 76.29
  Q 139.45 77.00 138.73 77.00
  L 124.50 76.98
  Q 124.02 76.98 124.02 76.50
  L 123.87 54.20
  A 0.70 0.69 -0.9 0 1 124.55 53.51
  L 125.83 53.50
  A 0.58 0.58 0.0 0 1 126.42 54.08
  L 126.51 74.74
  Q 126.51 75.19 126.90 74.97
  Z"
/>
<circle fill="#ffffff" cx="79.67" cy="86.75" r="1.36"/>
<circle fill="#ffffff" cx="161.28" cy="86.74" r="1.36"/>
<circle fill="#ffffff" cx="80.63" cy="100.89" r="1.37"/>
<circle fill="#ffffff" cx="160.37" cy="100.89" r="1.34"/>
<circle fill="#ffffff" cx="98.83" cy="115.77" r="1.32"/>
<ellipse fill="#ffffff" cx="0.00" cy="0.00" transform="translate(142.10,115.76) rotate(73.2)" rx="1.43" ry="1.29"/>
<circle fill="#ffffff" cx="83.06" cy="120.73" r="1.33"/>
<circle fill="#ffffff" cx="157.86" cy="120.75" r="1.28"/>
<path fill="#ffde5a" d="
  M 118.18 158.21
  L 132.76 158.12
  Q 133.40 158.12 133.41 158.76
  L 133.42 160.40
  Q 133.43 160.99 132.85 160.99
  L 118.99 161.00
  A 4.26 4.26 0.0 0 1 114.73 156.74
  L 114.73 137.51
  A 4.51 4.51 0.0 0 1 119.24 133.00
  L 132.85 133.00
  Q 133.45 133.00 133.43 133.60
  L 133.35 135.28
  Q 133.32 135.89 132.72 135.88
  L 118.33 135.84
  Q 117.75 135.84 117.75 136.42
  L 117.77 157.80
  Q 117.77 158.22 118.18 158.21
  Z"
/>
<path fill="#ffde5a" d="
  M 156.2538 156.2764
  A 4.73 4.73 0.0 0 1 151.5156 160.9981
  L 142.1756 160.9818
  A 4.73 4.73 0.0 0 1 137.4538 156.2436
  L 137.4862 137.7036
  A 4.73 4.73 0.0 0 1 142.2244 132.9819
  L 151.5644 132.9982
  A 4.73 4.73 0.0 0 1 156.2862 137.7364
  L 156.2538 156.2764
  Z
  M 140.36 159.16
  A 0.85 0.85 0.0 0 1 141.20 158.18
  L 152.69 158.13
  Q 153.25 158.13 153.25 157.56
  L 153.17 136.53
  Q 153.17 135.90 152.54 135.90
  L 140.94 135.84
  Q 140.37 135.84 140.39 136.40
  Q 140.82 147.95 140.31 159.50
  Q 140.31 159.53 140.33 159.56
  Q 140.38 159.67 140.38 159.50
  Q 140.38 159.33 140.36 159.16
  Z"
/>
<path fill="#ffde5a" d="
  M 161.10 133.04
  L 174.48 132.98
  A 4.38 4.37 89.9 0 1 178.87 137.36
  L 178.83 156.84
  A 4.17 4.16 0.0 0 1 174.66 161.00
  L 160.78 161.00
  Q 160.23 161.00 160.23 160.44
  L 160.24 133.91
  Q 160.24 133.05 161.10 133.04
  Z
  M 175.33 158.71
  Q 175.34 159.15 175.38 159.51
  A 0.19 0.19 0.0 0 0 175.76 159.49
  L 175.79 136.43
  Q 175.79 135.89 175.26 135.89
  Q 171.71 135.84 164.75 135.90
  Q 163.37 135.91 163.66 134.47
  Q 163.68 134.36 163.57 134.37
  Q 163.44 134.38 163.31 134.40
  Q 163.28 134.40 163.28 134.51
  L 163.26 157.04
  Q 163.26 157.26 163.12 157.44
  L 162.81 157.82
  Q 162.50 158.19 162.99 158.19
  L 174.75 158.13
  Q 175.33 158.12 175.33 158.71
  Z"
/>
<path fill="#ffde5a" d="
  M 186.24 158.20
  L 200.76 158.12
  Q 201.42 158.12 201.42 158.77
  L 201.43 160.40
  Q 201.43 160.99 200.84 160.99
  L 186.99 161.00
  A 4.26 4.26 0.0 0 1 182.73 156.74
  L 182.73 148.12
  Q 182.73 147.57 183.14 147.21
  L 183.77 146.67
  Q 184.19 146.31 183.82 145.89
  L 183.06 145.02
  Q 182.72 144.63 182.72 144.12
  L 182.73 137.51
  A 4.51 4.51 0.0 0 1 187.24 133.00
  L 200.85 133.00
  Q 201.46 133.00 201.43 133.60
  L 201.34 135.28
  Q 201.31 135.88 200.71 135.88
  L 186.32 135.85
  Q 185.73 135.85 185.74 136.43
  L 185.78 144.26
  A 0.48 0.47 0.0 0 0 186.26 144.73
  L 197.36 144.73
  A 0.63 0.62 0.4 0 1 197.99 145.36
  L 197.97 146.98
  Q 197.96 147.68 197.27 147.68
  L 186.44 147.62
  A 0.67 0.67 0.0 0 0 185.77 148.29
  L 185.77 157.74
  Q 185.77 158.20 186.24 158.20
  Z"
/>
<path fill="#ffde5a" d="
  M 222.88 144.37
  Q 221.80 144.67 221.20 144.15
  Q 220.75 143.76 220.76 142.76
  Q 220.79 139.53 220.76 136.33
  Q 220.76 135.88 220.30 135.88
  L 208.44 135.84
  Q 207.89 135.84 208.00 136.38
  C 208.09 136.84 208.27 137.02 208.27 137.58
  Q 208.26 149.00 208.27 160.41
  Q 208.27 160.98 207.70 160.98
  L 205.80 160.99
  Q 205.23 161.00 205.23 160.42
  L 205.25 133.50
  A 0.50 0.50 0.0 0 1 205.75 133.00
  L 219.68 133.00
  A 4.06 4.06 0.0 0 1 223.72 136.64
  C 224.05 139.84 224.94 147.56 219.47 147.73
  Q 215.59 147.85 211.75 147.25
  Q 211.24 147.17 211.66 147.48
  Q 212.07 147.79 212.69 147.73
  A 1.00 1.00 0.0 0 1 213.56 148.12
  L 222.87 160.36
  Q 223.21 160.80 222.66 160.93
  C 220.89 161.32 219.68 161.17 218.52 159.63
  Q 214.41 154.13 210.13 148.78
  Q 209.80 148.37 209.98 147.88
  C 210.86 145.55 212.49 144.64 215.09 144.77
  Q 219.01 144.97 222.88 144.37
  Z"
/>
<path fill="#ffde5a" d="
  M 242.03 157.84
  L 242.10 151.85
  Q 242.11 151.34 241.66 151.09
  C 237.03 148.55 232.20 146.20 228.37 142.53
  Q 228.00 142.19 228.00 141.69
  C 227.99 137.12 227.28 133.14 233.51 133.04
  Q 238.63 132.95 243.78 133.02
  Q 244.42 133.03 244.40 133.67
  L 244.34 135.28
  Q 244.32 135.89 243.71 135.89
  L 231.59 135.80
  Q 230.98 135.79 230.99 136.40
  L 231.00 140.96
  Q 231.00 141.66 231.61 142.01
  L 244.68 149.44
  A 0.78 0.78 0.0 0 1 245.07 150.10
  L 245.11 156.68
  A 4.29 4.28 -0.2 0 1 240.82 160.99
  L 228.62 161.00
  Q 227.99 161.00 227.99 160.37
  L 228.02 158.75
  Q 228.02 158.15 228.63 158.15
  L 241.67 158.19
  Q 242.02 158.19 242.03 157.84
  Z"
/>
<path fill="#ffffff" d="
  M 174.75 158.13
  L 162.99 158.19
  Q 162.50 158.19 162.81 157.82
  L 163.12 157.44
  Q 163.26 157.26 163.26 157.04
  L 163.28 134.51
  Q 163.28 134.40 163.31 134.40
  Q 163.44 134.38 163.57 134.37
  Q 163.68 134.36 163.66 134.47
  Q 163.37 135.91 164.75 135.90
  Q 171.71 135.84 175.26 135.89
  Q 175.79 135.89 175.79 136.43
  L 175.76 159.49
  A 0.19 0.19 0.0 0 1 175.38 159.51
  Q 175.34 159.15 175.33 158.71
  Q 175.33 158.12 174.75 158.13
  Z"
/>
<path fill="#5271ff" d="
  M 25.49 141.80
  L 24.26 141.22
  A 0.79 0.78 13.6 0 1 23.81 140.50
  L 23.81 135.72
  Q 23.81 135.11 24.42 135.15
  C 29.63 135.53 34.16 137.76 34.76 143.35
  Q 34.83 143.98 34.19 143.98
  L 27.11 143.98
  Q 26.45 143.98 26.29 143.35
  L 26.06 142.49
  A 1.04 1.04 0.0 0 0 25.49 141.80
  Z"
/>
<path fill="#5271ff" d="
  M 53.02 156.74
  C 58.81 157.25 59.47 152.62 59.48 148.19
  Q 59.50 141.92 53.00 141.55
  Q 52.48 141.52 52.48 141.00
  L 52.50 135.71
  Q 52.50 135.22 52.98 135.18
  C 64.00 134.29 69.76 141.88 68.29 152.19
  Q 66.69 163.40 53.04 163.52
  Q 52.50 163.52 52.50 162.98
  L 52.48 157.24
  Q 52.48 156.69 53.02 156.74
  Z"
/>
<path fill="#5271ff" d="
  M 26.41 155.43
  A 1.84 1.84 0.0 0 0 24.95 153.63
  C 20.38 152.67 11.29 151.57 10.45 145.55
  Q 9.24 136.87 18.65 135.47
  Q 19.23 135.39 19.23 135.97
  L 19.23 142.55
  A 2.12 2.11 -84.1 0 0 20.91 144.62
  C 26.17 145.73 35.30 146.69 35.42 153.98
  C 35.51 159.11 31.79 162.60 26.76 163.07
  Q 26.40 163.10 26.40 162.73
  L 26.41 155.43
  Z"
/>
<rect fill="#5271ff" x="73.21" y="135.48" width="8.82" height="27.52" rx="0.29"/>
<rect fill="#5271ff" x="100.32" y="135.49" width="8.92" height="27.50" rx="0.32"/>
<path fill="#5271ff" d="
  M 47.85 162.41
  A 0.11 0.11 0.0 0 1 47.74 162.52
  L 47.73 162.52
  A 13.16 8.92 -89.8 0 1 38.86 149.32
  L 38.86 149.00
  A 13.16 8.92 -89.8 0 1 47.83 135.88
  L 47.84 135.88
  A 0.11 0.11 0.0 0 1 47.95 135.99
  L 47.85 162.41
  Z"
/>
<path fill="#ffffff" d="
  M 140.36 159.16
  Q 140.38 159.33 140.38 159.50
  Q 140.38 159.67 140.33 159.56
  Q 140.31 159.53 140.31 159.50
  Q 140.82 147.95 140.39 136.40
  Q 140.37 135.84 140.94 135.84
  L 152.54 135.90
  Q 153.17 135.90 153.17 136.53
  L 153.25 157.56
  Q 153.25 158.13 152.69 158.13
  L 141.20 158.18
  A 0.85 0.85 0.0 0 0 140.36 159.16
  Z"
/>
<path fill="#5271ff" d="
  M 18.24 154.37
  C 18.38 156.55 19.64 156.73 21.27 157.10
  Q 21.78 157.22 21.78 157.74
  L 21.75 162.82
  Q 21.75 163.35 21.22 163.32
  C 15.30 163.04 9.89 161.22 9.78 154.20
  Q 9.77 153.71 10.26 153.71
  L 17.54 153.70
  A 0.71 0.70 88.3 0 1 18.24 154.37
  Z"
/>
<rect fill="#5271ff" x="86.69" y="155.97" width="9.52" height="7.02" rx="0.31"/>
<path fill="#0d0c12" d="
  M 99.58 172.90
  A 0.46 0.46 0.0 0 1 100.04 172.44
  L 102.60 172.46
  A 4.41 4.32 -89.5 0 1 106.88 176.91
  L 106.88 177.49
  A 4.41 4.32 -89.5 0 1 102.52 181.86
  L 99.96 181.84
  A 0.46 0.46 0.0 0 1 99.50 181.38
  L 99.58 172.90
  Z
  M 100.21 173.86
  L 100.27 180.50
  A 0.79 0.79 0.0 0 0 101.07 181.28
  L 102.49 181.27
  A 3.78 3.67 89.4 0 0 106.12 177.45
  L 106.12 176.79
  A 3.78 3.67 89.4 0 0 102.41 173.05
  L 100.99 173.06
  A 0.79 0.79 0.0 0 0 100.21 173.86
  Z"
/>
<path fill="#0d0c12" d="
  M 109.99 175.25
  Q 109.80 178.12 109.89 181.25
  Q 109.91 181.84 109.48 181.94
  A 0.24 0.24 0.0 0 1 109.18 181.71
  L 109.23 172.97
  A 0.54 0.54 0.0 0 1 110.27 172.78
  L 113.16 180.10
  A 0.36 0.36 0.0 0 0 113.83 180.10
  L 116.78 172.74
  A 0.50 0.50 0.0 0 1 117.75 172.92
  Q 117.82 177.03 117.90 181.41
  Q 117.91 181.68 117.71 181.80
  A 0.34 0.34 0.0 0 1 117.19 181.52
  L 117.03 175.25
  A 0.31 0.30 -35.2 0 0 116.44 175.15
  L 113.90 181.62
  A 0.45 0.44 -44.9 0 1 113.07 181.62
  L 110.56 175.16
  A 0.30 0.30 0.0 0 0 109.99 175.25
  Z"
/>
<path fill="#0d0c12" d="
  M 130.7812 182.2700
  A 5.04 3.16 90.1 0 1 127.6300 177.2245
  A 5.04 3.16 90.1 0 1 130.7988 172.1900
  A 5.04 3.16 90.1 0 1 133.9500 177.2355
  A 5.04 3.16 90.1 0 1 130.7812 182.2700
  Z
  M 130.7823 181.6800
  A 4.44 2.42 90.1 0 0 133.2100 177.2442
  A 4.44 2.42 90.1 0 0 130.7977 172.8000
  A 4.44 2.42 90.1 0 0 128.3700 177.2358
  A 4.44 2.42 90.1 0 0 130.7823 181.6800
  Z"
/>
<path fill="#0d0c12" d="
  M 122.43 173.70
  Q 121.93 174.25 121.28 174.56
  A 0.30 0.30 0.0 0 1 120.98 174.05
  L 123.01 172.59
  Q 123.71 172.08 123.73 172.95
  L 123.89 181.52
  A 0.26 0.25 -5.5 0 1 123.68 181.77
  L 123.32 181.84
  Q 123.24 181.86 123.24 181.78
  L 123.17 173.99
  A 0.43 0.43 0.0 0 0 122.43 173.70
  Z"
/>
<path fill="#323038" d="
  M 137.48 173.95
  L 136.51 174.59
  A 0.28 0.28 0.0 0 1 136.18 174.14
  L 138.10 172.61
  Q 138.89 171.98 138.89 172.99
  L 138.88 181.32
  A 0.35 0.35 0.0 0 1 138.18 181.33
  L 138.07 174.26
  Q 138.06 173.56 137.48 173.95
  Z"
/>
<ellipse fill="#ffffff" cx="0.00" cy="0.00" transform="translate(130.79,177.24) rotate(90.1)" rx="4.44" ry="2.42"/>
<path fill="#ffffff" d="
  M 100.21 173.86
  A 0.79 0.79 0.0 0 1 100.99 173.06
  L 102.41 173.05
  A 3.78 3.67 89.4 0 1 106.12 176.79
  L 106.12 177.45
  A 3.78 3.67 89.4 0 1 102.49 181.27
  L 101.07 181.28
  A 0.79 0.79 0.0 0 1 100.27 180.50
  L 100.21 173.86
  Z"
/>
</svg>
